PathFileType	4	(X/Y/Z)	54_1_50_p1_0-1668_filt_butterworth.trc
DataRate	CameraRate	NumFrames	NumMarkers	Units	OrigDataRate	OrigDataStartFrame	OrigNumFrames
44.0	44.0	6	27	m	44.0	834	1668
Frame#	Time	RHip			RKnee			RAnkle			RBigToe			RSmallToe			RHeel			LHip			LKnee			LAnkle			LBigToe			LSmallToe			LHeel			Neck			Head			Nose			RShoulder			RElbow			RWrist			RThumb			RIndex			RPinky			LShoulder			LElbow			LWrist			LThumb			LIndex			LPinky			
		X1	Y1	Z1	X2	Y2	Z2	X3	Y3	Z3	X4	Y4	Z4	X5	Y5	Z5	X6	Y6	Z6	X7	Y7	Z7	X8	Y8	Z8	X9	Y9	Z9	X10	Y10	Z10	X11	Y11	Z11	X12	Y12	Z12	X13	Y13	Z13	X14	Y14	Z14	X15	Y15	Z15	X16	Y16	Z16	X17	Y17	Z17	X18	Y18	Z18	X19	Y19	Z19	X20	Y20	Z20	X21	Y21	Z21	X22	Y22	Z22	X23	Y23	Z23	X24	Y24	Z24	X25	Y25	Z25	X26	Y26	Z26	X27	Y27	Z27	
834	18.954545454545453	0.3033500129270018	0.45338706053323363	0.9646798382453562	0.2877519212300464	0.5295028719251211	1.461147003232611	0.28840344171165017	0.5571683354691883	1.9105312307012459	0.21530357853254253	0.3541462051804334	1.9384540906805383	0.28204649108490226	0.38915911757519683	1.9602562125234169	0.26699733493631933	0.6445061282695388	2.002960529334742	0.09844287380813094	0.46733830638757473	0.953642734263989	0.08333993284606768	0.5205423624996214	1.4603426595564963	0.06229517963667475	0.5618262612739454	1.8885456792585424	0.06910711225679533	0.3796960154563038	1.9513432942991245	0.013911545963663466	0.42758051965852106	1.9642141330825509	0.08473852409459011	0.6086226502065677	1.946067716127681	0.2293364530317596	0.5018567219273462	0.39522877958330765	0.28402472506136944	0.5275194318968227	0.1600714402330891	0.26476796047440304	0.4016944316013297	0.2569579357794212	0.35895319123932845	0.4712350965242629	0.43920150809700875	0.4228777927604529	0.24777561457564068	0.2493243136567228	0.27258415866982666	0.13636047940145202	0.06395689903857812	0.1848943746011997	0.06976924658321974	0.03157711672224941	0.18545885039603607	0.05526885790877002	0.0012478292702127907	0.20306933136246486	0.05649467042151493	-0.012646378066695184	0.11319592515937667	0.4944071583814728	0.42759757309858953	0.00231178506598221	0.2864459421044132	0.24736518649472605	0.13232672575884558	0.11880316684898816	0.07017389857982027	0.17533681909394788	0.12289486264364373	0.04247162582682034	0.200672465186928	0.08288846148441431	0.008145173085799852	0.18185919333186742	0.04814521247964833	-0.010789855281495753
835	18.977272727272727	0.3033114087400221	0.45348047944796066	0.9646805404211585	0.28785527546595363	0.529623460174966	1.4614745960774203	0.2884375732032436	0.5571860740444998	1.910745522873071	0.21453204927645686	0.35176596489422823	1.9373700041618755	0.28198120516258784	0.38901925049095676	1.9605070967518476	0.2668160669031004	0.6453212585770957	2.0035705735724743	0.0984722204504597	0.4669541143863491	0.9537657313032387	0.08385072162385462	0.5201968370748812	1.4627999277760657	0.06243725174696364	0.5629963007277592	1.88819783297252	0.06820944394031166	0.3764508618860366	1.9490822725287638	0.01389274990234762	0.4276354892621158	1.964210131744126	0.08512368927569766	0.608440169039161	1.9443305876618884	0.23096101063048607	0.502215391656913	0.39511911360313723	0.2829321926029522	0.5323653342932342	0.16074295843304712	0.2664760664967847	0.40267102750507566	0.25706916385333445	0.3589777745725584	0.47071080984251606	0.4406765936267407	0.42305007976283465	0.25276563494669757	0.2506310448228949	0.27797467648474716	0.13645591878047586	0.05901699146338059	0.19378687891859436	0.08218628948069251	0.026529329890952604	0.1876870780542455	0.05625940209865177	-0.006513901186710123	0.20645023436619264	0.06319621449890857	-0.02241550159590518	0.11330341936952842	0.4944941502422487	0.4285059199901105	0.0024078435324875374	0.2878956242470818	0.24197857126789976	0.1319211331258527	0.1261034165119898	0.06546367171303182	0.17520575315121148	0.14201674904571499	0.03276330843965109	0.20130220270371835	0.09004171187700677	0.004820334354144372	0.1826560244099026	0.047638681538931325	-0.02141875879511112
836	19.0	0.30334440403857793	0.45360952102782637	0.9647527480489182	0.2890750891512349	0.5302734729788495	1.46186192755447	0.28842622335112983	0.5569478184965679	1.9104941648562186	0.21425507284649475	0.351215383235327	1.9363554281440052	0.28198814565510777	0.38890754243451137	1.9604300771940548	0.26694076550207524	0.6446212388768109	2.003368156071665	0.09856383057331293	0.4664516680915591	0.9547583707818666	0.08431139332307395	0.5200647265447947	1.46664996894448	0.06342408336238872	0.5650189982585327	1.8873748153182837	0.06680388972680593	0.37142373093157977	1.945554289347034	0.013889383182575016	0.4277513133611043	1.9642279656926966	0.08513569783576815	0.6083497381978507	1.9440658754438913	0.2339019932589901	0.499818188354338	0.39530790085715783	0.2846797380956702	0.536539475522775	0.16160574142194792	0.2675592693092127	0.40336723330593965	0.2571120775490607	0.35899867829368726	0.4703750561870766	0.442072159797525	0.4226503469629085	0.2618155794338934	0.25102940060768775	0.2865254954149985	0.13706002790220811	0.05754978995504305	0.20737642556355457	0.0942558716660685	0.02166773171755371	0.19360047651965004	0.05833689823660647	-0.017765815576133312	0.21319333626920264	0.07284638496774183	-0.03138910100402517	0.1132563325375473	0.49440478797892884	0.43013067755312884	0.0026905880817397546	0.29036001939942535	0.23855905236113634	0.12844026023644894	0.1372292530074254	0.061625326628993865	0.1800247225779005	0.1525412748460645	0.022799682454811336	0.203978928382209	0.0937687028407011	0.00025401992265525143	0.18282633087358544	0.0499738914020096	-0.031212238680686344
837	19.022727272727277	0.30352711925893794	0.45337434890507194	0.9647823333028558	0.2910119111685128	0.5312156666030982	1.4622395535774633	0.2882382479913884	0.557407832173733	1.9092034369085351	0.21424071358213456	0.3513256950098009	1.9354551481789588	0.28213034163887996	0.38899866586694987	1.9599524850601617	0.2680855899726132	0.6396115345857616	1.9999438165723817	0.09859852577786105	0.4662003606895282	0.9563533526035519	0.08436840348172217	0.5200838254901446	1.4683311430703894	0.06495823368246491	0.5662662461131083	1.886893417308428	0.06591685170067771	0.36825835722963196	1.9433386719846182	0.013886260667261664	0.4277877739072182	1.9642525527489745	0.08504939421974073	0.6084230748362298	1.944395827624144	0.236762960433824	0.4950258766049207	0.3954450448810454	0.2881052124756036	0.5379271493294624	0.16170335861042934	0.26773838427465635	0.4035643643858172	0.2571955152505563	0.3591109207690435	0.4701183336405968	0.4425477062297546	0.421387932927809	0.2679834953947982	0.24888197956367297	0.29330992742449696	0.13150359922519908	0.05492787996857035	0.2195376267261095	0.1002941474464418	0.015471238749982654	0.20244706636065465	0.05970877024302586	-0.031154699777798122	0.22115013111784726	0.0784957302055945	-0.0397552866148195	0.11335728541255483	0.4945553113699005	0.4320211721230451	0.0025887258697806885	0.29406892197488443	0.23788889987897435	0.12009639512424736	0.15082190973473109	0.059323033829495844	0.18524092862773095	0.15711917079742416	0.016839711106078542	0.2056686017327003	0.09882668392085622	-0.006137188293748287	0.1777521508571807	0.06378131602782959	-0.03971696832793947
838	19.045454545454547	0.3039094774822342	0.4528346295105139	0.9647725829911501	0.29222793378051276	0.5317050617334376	1.4623576205820223	0.2879532759384828	0.5587904381244035	1.908203031304578	0.2147645957143992	0.3526411913252431	1.935877750894636	0.2825436954412318	0.38945145500749834	1.9587032970139238	0.26962592255770984	0.6316896187027217	1.993161999127398	0.0985704155370423	0.4665402785762309	0.9575636438420272	0.08407698586497359	0.5201340278210791	1.4654472991753922	0.06590416237310727	0.5663719326125416	1.8868501737859653	0.06583075450605416	0.36773212207736394	1.9431297197242734	0.013877572585840409	0.42775984185930854	1.9642805924685347	0.08501076309576022	0.6084802079545633	1.9446855783976724	0.23788221617612604	0.49145482533135576	0.39489683926114616	0.2904082835941219	0.5332083169255706	0.1615080622647485	0.26765396281000453	0.4035213678548878	0.2569727023381523	0.35920068569265734	0.47003516785645305	0.4415317412569807	0.4193021604952618	0.26917810966380973	0.2466108918121313	0.2974442540747791	0.11819043590157248	0.049297975268004016	0.22667964312553435	0.10092761872651546	0.007848168684801458	0.21237234807332725	0.058664609621121994	-0.04295473028853315	0.2294089350678683	0.07365109211376175	-0.046181493944093606	0.1134660229471905	0.4946241511290272	0.433012875110269	0.0012184703319461098	0.30081092795565456	0.23795553657627908	0.11009448989929616	0.16268160929877867	0.05855370829732675	0.1860117036686052	0.16089603272852654	0.014265587756748525	0.20079009622528238	0.11406059433069658	-0.017528921825534324	0.16458206565258643	0.08740958699458509	-0.04588675795055056
839	19.068181818181817	0.3040662664842427	0.45372912180014957	0.9647648889650394	0.2924408204280642	0.5317293019182951	1.4622603578614006	0.28828780515468216	0.558533019410669	1.9091982025517353	0.2151330956468032	0.35442640072692905	1.9371892602712966	0.28266104958594424	0.3893899154927552	1.9577988467141236	0.2701594025054543	0.6260160189989576	1.9871833666705072	0.0985143741591154	0.4672057823340374	0.9577344087906582	0.0839611982713071	0.5202407798402422	1.4600628467768706	0.06602999411738175	0.5662554227030204	1.8868958418203632	0.06593799931827966	0.367758875226317	1.9434726787492556	0.013884366325539342	0.4278250408309161	1.9643718106761345	0.08505656145635594	0.6086461336347113	1.9443106728468962	0.23772406842292465	0.49061500378231104	0.39375394650774465	0.29162982765451484	0.5233786832701878	0.16169290339790882	0.26746452912407	0.40330935597274137	0.2558960035503	0.35902887659510707	0.47059233838823045	0.4400554915442268	0.4162055631796627	0.26862644083615245	0.24660035086266605	0.30156538493957424	0.10580892654713232	0.04455198611210584	0.22994052484051453	0.10147257721186653	0.0003593308171019928	0.22242344295988284	0.05799459551326564	-0.050067076283575956	0.23949634006196024	0.06163404737170145	-0.04958668734371491	0.11351532460158399	0.49451943947020155	0.4330823199389288	-0.0008387084049769637	0.31262045721354137	0.23855487016464116	0.10247414985902514	0.16857219503589188	0.05800970873151429	0.18165735402533628	0.1611332472391623	0.012234357065341959	0.1876781139587826	0.1322082863472961	-0.0323699377645546	0.14637394665008932	0.10492617106678011	-0.04886979435558599
